Coordinates
version=1
nRows=6
nColumns=36
inDegrees=yes

Units are S.I. units (second, meters, Newtons, ...)
If the header above contains a line with 'inDegrees', this indicates whether rotational values are in degrees (yes) or radians (no).

endheader
time	pelvis_tilt	pelvis_list	pelvis_rotation	pelvis_tx	pelvis_ty	pelvis_tz	hip_flexion_r	hip_adduction_r	hip_rotation_r	knee_angle_r	knee_angle_r_beta	ankle_angle_r	subtalar_angle_r	mtp_angle_r	hip_flexion_l	hip_adduction_l	hip_rotation_l	knee_angle_l	knee_angle_l_beta	ankle_angle_l	subtalar_angle_l	mtp_angle_l	lumbar_extension	lumbar_bending	lumbar_rotation	arm_flex_r	arm_add_r	arm_rot_r	elbow_flex_r	pro_sup_r	arm_flex_l	arm_add_l	arm_rot_l	elbow_flex_l	pro_sup_l
      0.36000000	      1.73646485	     -2.00335742	     -1.02445630	      0.29432648	      1.05567590	     -0.19687525	     -4.35480965	      7.25144576	      4.09149682	      6.21005290	      0.10838587	     10.95885389	      1.41086098	     -6.18393658	     26.32956990	     -2.88883966	     -3.69909660	     54.09780691	      0.94418485	      6.19062051	     -9.75312510	     -6.18393658	     -9.30658996	     -2.48064294	     -4.92716888	    -11.19666704	     -5.97629657	    -15.67817772	     48.08781684	    105.96843601	    -16.40463423	     -9.60475566	    -11.42100295	     61.74747333	     93.95417557
      0.37000000	      1.52401849	     -1.99683426	     -1.11057978	      0.30538422	      1.05436565	     -0.19613062	     -4.84431199	      7.27863284	      4.25016104	      6.18310762	      0.10791559	     11.38285789	      1.41491476	     -6.19334937	     26.96150681	     -2.81415551	     -3.60159403	     51.16418917	      0.89298356	      6.38066673	     -9.27433862	     -6.19334937	     -9.28241746	     -2.82041746	     -4.91282736	    -11.17150354	     -6.25278099	    -15.54879835	     48.67698422	    105.97471339	    -17.34401889	     -9.07209976	    -11.81870152	     60.52078546	     93.82069104
      0.38000000	      1.42449236	     -1.99752148	     -1.22932405	      0.31652534	      1.05311243	     -0.19533503	     -5.45704553	      7.30981305	      4.44457881	      6.18272328	      0.10790888	     12.01277065	      1.41115569	     -6.20544487	     27.33416853	     -2.78945752	     -3.56889417	     47.98672177	      0.83752629	      6.32201738	     -8.68697066	     -6.20544487	     -9.38856098	     -3.16071725	     -4.78355136	    -11.21917695	     -6.58720262	    -15.29265379	     49.32019959	    105.98299230	    -18.07476904	     -8.42259558	    -12.52561392	     59.03563683	     93.65326311
      0.39000000	      1.37547786	     -2.03430052	     -1.34689851	      0.32771679	      1.05177769	     -0.19455489	     -6.11559879	      7.37396973	      4.63254805	      6.20411292	      0.10828220	     12.67195630	      1.46999643	     -6.22331291	     27.55957649	     -2.80964703	     -3.52906812	     44.63238981	      0.77898216	      5.90329087	     -8.16796638	     -6.22331291	     -9.55487468	     -3.48055164	     -4.63819521	    -11.29091399	     -6.96688160	    -14.96415513	     49.98648951	    105.96911516	    -18.74243145	     -7.70984567	    -13.41465826	     57.52540620	     93.50581858
      0.40000000	      1.26740686	     -2.06000195	     -1.41616633	      0.33895503	      1.05025197	     -0.19380504	     -6.70162176	      7.43227593	      4.80952207	      6.24628649	      0.10901827	     13.24865028	      1.52270985	     -6.24466251	     27.74988337	     -2.78200544	     -3.40039949	     41.07437820	      0.71688314	      5.04958632	     -7.75060603	     -6.24466251	     -9.66643644	     -3.81536600	     -4.58389537	    -11.35268466	     -7.31081547	    -14.66928855	     50.65645413	    105.93255226	    -19.50128913	     -7.08386154	    -14.30626072	     56.13410268	     93.39853581
      0.41000000	      1.02808093	     -2.10721829	     -1.42979077	      0.35034092	      1.04839419	     -0.19303291	     -7.15065024	      7.53686196	      4.97009708	      6.29091139	      0.10979712	     13.69695981	      1.45104412	     -6.25587183	     28.01108341	     -2.77653043	     -3.21582825	     37.40226219	      0.65279262	      4.00187482	     -7.06017058	     -6.25587183	     -9.61120188	     -4.15330399	     -4.60640895	    -11.45567142	     -7.57348276	    -14.51985033	     51.33917102	    105.93385294	    -20.39356991	     -6.58364094	    -14.92388008	     54.93781985	     93.28070244
